<svg width="36" height="33" viewBox="0 0 36 33" fill="none" xmlns="http://www.w3.org/2000/svg">
<path fill-rule="evenodd" clip-rule="evenodd" d="M31.7832 2.49635C27.033 -0.767675 21.1673 0.755538 18.0005 4.49104C14.8337 0.755538 8.96797 -0.785808 4.21779 2.49635C1.69876 4.23717 0.115371 7.17479 0.0074122 10.2756C-0.244491 17.3114 5.94513 22.9509 15.3915 31.6006L15.5714 31.7638C16.9389 33.015 19.0441 33.015 20.4116 31.7457L20.6095 31.5643C30.0559 22.9328 36.2275 17.2933 35.9936 10.2575C35.8856 7.17479 34.3022 4.23717 31.7832 2.49635ZM18.1804 28.8987L18.0005 29.08L17.8206 28.8987C9.25586 21.0832 3.60603 15.9151 3.60603 10.6746C3.60603 7.04786 6.30499 4.32783 9.90361 4.32783C12.6745 4.32783 15.3735 6.12305 16.3271 8.60734H19.6918C20.6275 6.12305 23.3264 4.32783 26.0974 4.32783C29.696 4.32783 32.395 7.04786 32.395 10.6746C32.395 15.9151 26.7451 21.0832 18.1804 28.8987Z" fill="#C41514"/>
</svg>
